<?xml version="1.0" encoding="UTF-8" standalone="no"?>
<!-- Created with Inkscape (http://www.inkscape.org/) -->

<svg
   xmlns:dc="http://purl.org/dc/elements/1.1/"
   xmlns:cc="http://creativecommons.org/ns#"
   xmlns:rdf="http://www.w3.org/1999/02/22-rdf-syntax-ns#"
   xmlns:svg="http://www.w3.org/2000/svg"
   xmlns="http://www.w3.org/2000/svg"
   xmlns:sodipodi="http://sodipodi.sourceforge.net/DTD/sodipodi-0.dtd"
   xmlns:inkscape="http://www.inkscape.org/namespaces/inkscape"
   width="1200"
   height="1200"
   viewBox="0 0 317.5 317.50001"
   version="1.1"
   id="svg8"
   inkscape:version="0.92.4 (5da689c313, 2019-01-14)"
   sodipodi:docname="logo_gradient_text.svg"
   inkscape:export-filename="C:\Users\alist\OneDrive\Documents\Atomic Sorbet\Logo\logo_gradient_messenger.png"
   inkscape:export-xdpi="600"
   inkscape:export-ydpi="600">
  <defs
     id="defs2" />
  <sodipodi:namedview
     id="base"
     pagecolor="#ffffff"
     bordercolor="#666666"
     borderopacity="1.0"
     inkscape:pageopacity="1"
     inkscape:pageshadow="2"
     inkscape:zoom="0.35355339"
     inkscape:cx="900.75694"
     inkscape:cy="905.63814"
     inkscape:document-units="px"
     inkscape:current-layer="layer1"
     showgrid="false"
     units="px"
     inkscape:window-width="1920"
     inkscape:window-height="1121"
     inkscape:window-x="-9"
     inkscape:window-y="-9"
     inkscape:window-maximized="1"
     showguides="true"
     inkscape:guide-bbox="true"
     inkscape:pagecheckerboard="false"
     objecttolerance="20" />
  <metadata
     id="metadata5">
    <rdf:RDF>
      <cc:Work
         rdf:about="">
        <dc:format>image/svg+xml</dc:format>
        <dc:type
           rdf:resource="http://purl.org/dc/dcmitype/StillImage" />
        <dc:title></dc:title>
      </cc:Work>
    </rdf:RDF>
  </metadata>
  <g
     inkscape:label="Layer 1"
     inkscape:groupmode="layer"
     id="layer1"
     transform="translate(0,20.500023)">
    <path
       sodipodi:nodetypes="cssccsc"
       inkscape:connector-curvature="0"
       id="path933"
       d="M 215.00921,12.599075 C 197.83088,2.5988801 178.54489,-2.4616739 159.22528,-2.5456739 131.76877,-2.6650539 104.24637,7.2630801 82.617534,27.333901 38.673244,68.112651 34.665634,136.2761 73.528654,181.92339 m 13.5927,13.44626 C 133.1869,233.73602 201.30302,228.99022 241.60351,184.60686 275.17292,147.63654 279.50843,94.102469 255.38808,52.883301"
       style="fill:none;fill-opacity:1;stroke:#656565;stroke-width:5.29166651;stroke-linecap:round;stroke-linejoin:round;stroke-miterlimit:4;stroke-dasharray:none;stroke-dashoffset:0;stroke-opacity:1" />
    <flowRoot
       xml:space="preserve"
       id="flowRoot854"
       style="font-style:normal;font-variant:normal;font-weight:normal;font-stretch:normal;font-size:24px;line-height:1;font-family:Roboto;-inkscape-font-specification:Roboto;letter-spacing:0px;word-spacing:0px;fill:#000000;fill-opacity:1;stroke:none"
       transform="translate(-375.70834,153.45833)"><flowRegion
         id="flowRegion856"><rect
           id="rect858"
           width="1013.9911"
           height="172.53406"
           x="101.82338"
           y="1000.7826" /></flowRegion><flowPara
         id="flowPara860" /></flowRoot>    <path
       sodipodi:nodetypes="ccccc"
       inkscape:connector-curvature="0"
       id="path862"
       d="m 105.89113,152.29066 c -8.775148,10.76088 -36.089358,44.16537 -44.864568,54.92622 10.46971,-8.5593 54.805368,-44.96932 54.805368,-44.96932 l -9.94081,-9.95689 z"
       style="fill:#f05151;fill-opacity:1;stroke:#3c3c3c;stroke-width:3.96875;stroke-linecap:round;stroke-linejoin:round;stroke-miterlimit:4;stroke-dasharray:none;stroke-opacity:1" />
    <path
       inkscape:transform-center-y="-8.1197155"
       inkscape:transform-center-x="-20.849038"
       sodipodi:nodetypes="ccccc"
       inkscape:connector-curvature="0"
       id="path866"
       d="m 135.03124,158.68634 40.36756,-21.13796 c 4.20243,22.66578 -9.93778,47.43406 -40.60423,64.36127 2.53736,-17.02886 5.27192,-31.36998 0.23668,-43.22329 z"
       style="fill:none;stroke:#3c3c3c;stroke-width:6.61458349;stroke-linecap:butt;stroke-linejoin:miter;stroke-miterlimit:4;stroke-dasharray:none;stroke-opacity:1" />
    <path
       style="fill:none;stroke:#3c3c3c;stroke-width:6.61458349;stroke-linecap:butt;stroke-linejoin:miter;stroke-miterlimit:4;stroke-dasharray:none;stroke-opacity:1"
       d="m 109.00866,132.66376 20.9871,-40.446191 c -22.68132,-4.11778 -47.396648,10.114801 -64.209248,40.844221 17.01926,-2.6009 31.35006,-5.38898 43.222098,-0.39805 z"
       id="path868"
       inkscape:connector-curvature="0"
       sodipodi:nodetypes="ccccc"
       inkscape:transform-center-x="20.851715"
       inkscape:transform-center-y="-8.0249503" />
    <path
       style="fill:#bebebe;fill-opacity:1;stroke:#3c3c3c;stroke-width:2.64583325;stroke-linecap:butt;stroke-linejoin:miter;stroke-miterlimit:4;stroke-dasharray:none;stroke-opacity:1"
       d="m 135.03124,158.68634 40.36756,-21.13796 c 4.20243,22.66578 -9.93778,47.43406 -40.60423,64.36127 2.53736,-17.02886 5.27192,-31.36998 0.23668,-43.22329 z"
       id="path870"
       inkscape:connector-curvature="0"
       sodipodi:nodetypes="ccccc"
       inkscape:transform-center-x="-20.849038"
       inkscape:transform-center-y="-8.1197155" />
    <path
       inkscape:transform-center-y="-8.0249503"
       inkscape:transform-center-x="20.851715"
       sodipodi:nodetypes="ccccc"
       inkscape:connector-curvature="0"
       id="path872"
       d="m 109.00866,132.66376 20.9871,-40.446191 c -22.68132,-4.11778 -47.396648,10.114801 -64.209248,40.844221 17.01926,-2.6009 31.35006,-5.38898 43.222098,-0.39805 z"
       style="fill:#bebebe;fill-opacity:1;stroke:#3c3c3c;stroke-width:2.64583325;stroke-linecap:butt;stroke-linejoin:miter;stroke-miterlimit:4;stroke-dasharray:none;stroke-opacity:1" />
    <path
       style="fill:#a3edbe;fill-opacity:1;stroke:#3c3c3c;stroke-width:3.96875;stroke-linecap:butt;stroke-linejoin:round;stroke-miterlimit:4;stroke-dasharray:none;stroke-opacity:1"
       d="m 214.07478,12.591486 c -9.87203,0.105606 -20.33186,4.780336 -27.06243,11.299571 -6.73056,6.519235 -10.45005,15.186618 -11.14867,24.474994 l 24.27294,24.320988 -17.12661,17.30541 c -5.90151,5.96308 6.33537,14.812971 10.84947,10.449491 l 17.46818,-16.884761 8.37985,8.56123 0.0222,0.0222 c 9.25202,-0.72802 17.87441,-4.67561 24.36647,-11.16573 15.35641,-15.351758 15.02225,-40.579516 -0.74101,-56.34278 -8.12794,-8.127939 -18.77144,-12.153026 -29.28039,-12.04061 z"
       id="path833"
       inkscape:connector-curvature="0"
       sodipodi:nodetypes="czcccccccsssc" />
    <path
       style="fill:#fcca84;fill-opacity:1;stroke:#3c3c3c;stroke-width:3.96875;stroke-linecap:butt;stroke-linejoin:round;stroke-miterlimit:4;stroke-dasharray:none;stroke-opacity:1"
       d="M 211.32765,83.557259 193.8597,100.44172 c -4.5141,4.36348 -16.75144,-4.486241 -10.84993,-10.449331 L 200.13685,72.686929 169.52542,42.075563 C 167.2587,46.440441 117.39061,142.46771 115.12388,146.83259 l 6.57117,6.57117 c 4.35205,-2.27957 95.74504,-50.15039 104.44912,-54.709521 z"
       id="path874"
       inkscape:connector-curvature="0"
       sodipodi:nodetypes="ccccccccc" />
    <path
       style="fill:none;stroke:#fbaf44;stroke-width:3.96875;stroke-linecap:round;stroke-linejoin:miter;stroke-miterlimit:4;stroke-dasharray:none;stroke-opacity:1"
       d="m 155.92503,68.264821 7.76268,12.736368 3.88134,6.36819 3.88134,6.36818 3.88134,6.368191 3.88134,6.36819 7.76268,12.73637"
       id="path852"
       inkscape:connector-curvature="0"
       sodipodi:nodetypes="ccccccc" />
    <path
       style="fill:none;stroke:#fbaf44;stroke-width:3.96875;stroke-linecap:butt;stroke-linejoin:miter;stroke-miterlimit:4;stroke-dasharray:none;stroke-opacity:1"
       d="m 142.32465,94.454079 18.53882,38.433611"
       id="path854"
       inkscape:connector-curvature="0" />
    <path
       style="fill:none;stroke:#fbaf44;stroke-width:3.96875;stroke-linecap:butt;stroke-linejoin:miter;stroke-miterlimit:4;stroke-dasharray:none;stroke-opacity:1"
       d="m 128.72426,120.64333 9.68101,25.19092"
       id="path856"
       inkscape:connector-curvature="0"
       sodipodi:nodetypes="cc" />
    <path
       sodipodi:nodetypes="scccccccsaaas"
       inkscape:connector-curvature="0"
       id="path885"
       d="m 187.01235,23.891057 c -6.73056,6.519235 -10.45005,15.186618 -11.14867,24.474994 l 24.27294,24.320988 -17.12661,17.30541 c -5.90151,5.96308 6.33537,14.812971 10.84947,10.449491 l 17.46818,-16.884761 8.37985,8.56123 0.0222,0.0222 c 9.25202,-0.72802 17.87441,-4.67561 24.36647,-11.16573 3.83909,-3.83795 -8.93434,-4.81538 -12.03639,-8.66454 -5.44476,-6.756118 -3.99719,-17.988378 -10.37131,-23.875758 -6.60435,-6.100019 -18.56524,-3.0442 -25.51209,-8.751123 -4.7028,-3.863414 -7.48143,-17.42224 -9.16407,-15.792431 z"
       style="fill:#e1fbe0;fill-opacity:1;stroke:#3c3c3c;stroke-width:3.96875;stroke-linecap:butt;stroke-linejoin:round;stroke-miterlimit:4;stroke-dasharray:none;stroke-opacity:1" />
    <path
       sodipodi:nodetypes="ccccccccc"
       inkscape:connector-curvature="0"
       id="path887"
       d="M 211.32765,83.557259 193.8597,100.44172 c -4.5141,4.36348 -16.75144,-4.486241 -10.84993,-10.449331 L 200.13685,72.686929 169.52542,42.075563 C 167.2587,46.440441 117.39061,142.46771 115.12388,146.83259 l 6.57117,6.57117 c 4.35205,-2.27957 95.74504,-50.15039 104.44912,-54.709521 z"
       style="fill:none;fill-opacity:1;stroke:#3c3c3c;stroke-width:3.96875;stroke-linecap:butt;stroke-linejoin:round;stroke-miterlimit:4;stroke-dasharray:none;stroke-opacity:1" />
    <path
       style="fill:#e1fbe0;fill-opacity:1;stroke:none;stroke-width:3.96875;stroke-linecap:round;stroke-linejoin:round;stroke-miterlimit:4;stroke-dasharray:none;stroke-dashoffset:0;stroke-opacity:1"
       id="path889"
       sodipodi:type="arc"
       sodipodi:cx="219.10118"
       sodipodi:cy="72.400299"
       sodipodi:rx="1.1693041"
       sodipodi:ry="1.1693041"
       sodipodi:start="2.443461"
       sodipodi:end="2.2724187"
       d="m 218.20544,73.151913 a 1.1693041,1.1693041 0 0 1 0.10652,-1.614404 1.1693041,1.1693041 0 0 1 1.61749,0.03741 1.1693041,1.1693041 0 0 1 0.0318,1.617603 1.1693041,1.1693041 0 0 1 -1.61477,0.100885 l 0.75474,-0.89311 z" />
    <path
       style="fill:none;stroke:#e1fbe0;stroke-width:3.96875;stroke-linecap:round;stroke-linejoin:miter;stroke-miterlimit:4;stroke-dasharray:none;stroke-opacity:1"
       d="m 199.38514,23.307329 c 5.80566,-3.637454 14.1688,-5.025313 20.24779,-3.994352"
       id="path895"
       inkscape:connector-curvature="0"
       sodipodi:nodetypes="cc" />
    <g
       aria-label="Atomic Sorbet"
       transform="matrix(0.26458334,0,0,0.26458334,-0.41632752,-34.190261)"
       style="font-style:normal;font-variant:normal;font-weight:normal;font-stretch:normal;font-size:24px;line-height:1;font-family:'Big Shoulders Display';-inkscape-font-specification:'Big Shoulders Display';letter-spacing:0px;word-spacing:0px;fill:#3c3c3c;fill-opacity:1;stroke:none"
       id="flowRoot882">
      <path
         d="m 149.49352,1122.9417 -5.92,-25.92 h -38.08 l -5.760004,25.92 h -13.44 q 2.72,-10.56 6.08,-22.88 3.36,-12.32 7.2,-25.28 4.000004,-12.96 8.320004,-25.92 4.32,-13.12 9.12,-24.96 h 16.32 q 4.64,11.84 8.8,24.96 4.32,12.96 8,25.92 3.84,12.96 7.2,25.28 3.36,12.32 6.08,22.88 z m -24.8,-87.52 q -3.68,10.08 -8,23.36 -4.32,13.28 -8.16,27.36 h 32 q -3.68,-14.4 -8,-27.68 -4.16,-13.44 -7.84,-23.04 z"
         style="font-style:normal;font-variant:normal;font-weight:normal;font-stretch:normal;font-size:160px;font-family:'Ubuntu Mono';-inkscape-font-specification:'Ubuntu Mono';fill:#3c3c3c;fill-opacity:1"
         id="path876" />
      <path
         d="m 203.73352,1048.7017 h 31.36 v 11.04 h -31.36 v 34.56 q 0,5.6 0.8,9.12 0.8,3.52 2.56,5.76 1.92,2.08 4.8,2.88 2.88,0.8 7.04,0.8 5.76,0 9.28,-0.96 3.52,-0.96 6.72,-2.56 l 1.92,11.2 q -2.24,0.96 -7.2,2.56 -4.8,1.6 -12,1.6 -8.32,0 -13.6,-1.92 -5.28,-1.92 -8.32,-5.76 -2.88,-3.84 -4,-9.44 -1.12,-5.76 -1.12,-13.28 v -34.56 h -15.68 v -11.04 h 15.68 v -20.8 l 13.12,-2.24 z"
         style="font-style:normal;font-variant:normal;font-weight:normal;font-stretch:normal;font-size:160px;font-family:'Ubuntu Mono';-inkscape-font-specification:'Ubuntu Mono';fill:#3c3c3c;fill-opacity:1"
         id="path878" />
      <path
         d="m 318.45352,1085.8217 q 0,8.8 -2.56,16 -2.4,7.04 -6.88,12.16 -4.48,5.12 -10.72,8 -6.24,2.72 -13.6,2.72 -7.2,0 -13.44,-2.72 -6.08,-2.88 -10.56,-8 -4.48,-5.12 -7.04,-12.16 -2.4,-7.2 -2.4,-16 0,-8.8 2.4,-16 2.56,-7.2 7.04,-12.16 4.48,-5.12 10.56,-7.84 6.24,-2.88 13.44,-2.88 7.36,0 13.6,2.88 6.24,2.72 10.72,7.84 4.48,4.96 6.88,12.16 2.56,7.2 2.56,16 z m -13.6,0 q 0,-12.64 -5.44,-19.84 -5.44,-7.36 -14.72,-7.36 -9.12,0 -14.56,7.36 -5.28,7.2 -5.28,19.84 0,12.48 5.28,19.84 5.44,7.2 14.56,7.2 9.28,0 14.72,-7.2 5.44,-7.36 5.44,-19.84 z"
         style="font-style:normal;font-variant:normal;font-weight:normal;font-stretch:normal;font-size:160px;font-family:'Ubuntu Mono';-inkscape-font-specification:'Ubuntu Mono';fill:#3c3c3c;fill-opacity:1"
         id="path880" />
      <path
         d="m 331.41352,1050.7817 q 9.6,-3.68 18.08,-3.68 4.64,0 8.64,1.44 4.16,1.28 7.04,4.16 6.88,-5.6 14.72,-5.6 3.84,0 7.2,1.44 3.52,1.44 6.08,4.32 2.72,2.88 4.32,7.2 1.6,4.32 1.6,10.08 v 52.8 h -12 v -53.12 q 0,-5.76 -2.56,-8.8 -2.56,-3.04 -6.4,-3.04 -1.92,0 -4,0.96 -2.08,0.96 -3.84,3.04 0.96,3.68 0.96,8.16 v 24.16 h -12 v -24.32 q 0,-5.6 -1.76,-8.8 -1.76,-3.2 -6.88,-3.2 -3.2,0 -7.2,1.44 v 63.52 h -12 z"
         style="font-style:normal;font-variant:normal;font-weight:normal;font-stretch:normal;font-size:160px;font-family:'Ubuntu Mono';-inkscape-font-specification:'Ubuntu Mono';fill:#3c3c3c;fill-opacity:1"
         id="path882" />
      <path
         d="m 438.29352,1037.1817 q -4.16,0 -7.2,-2.88 -3.04,-2.88 -3.04,-7.84 0,-4.96 3.04,-7.84 3.04,-2.88 7.2,-2.88 4.32,0 7.2,2.88 3.04,2.88 3.04,7.84 0,4.96 -3.04,7.84 -2.88,2.88 -7.2,2.88 z m -3.36,22.56 h -21.44 v -11.04 h 34.56 v 45.6 q 0,11.04 3.04,14.88 3.04,3.68 9.12,3.68 4.64,0 8.48,-1.12 4,-1.12 6.24,-2.4 l 1.92,11.2 q -0.96,0.48 -2.72,1.28 -1.76,0.64 -4.16,1.28 -2.24,0.64 -5.12,1.12 -2.72,0.48 -5.76,0.48 -7.04,0 -11.68,-1.92 -4.64,-1.92 -7.52,-5.76 -2.72,-3.84 -3.84,-9.44 -1.12,-5.76 -1.12,-13.28 z"
         style="font-style:normal;font-variant:normal;font-weight:normal;font-stretch:normal;font-size:160px;font-family:'Ubuntu Mono';-inkscape-font-specification:'Ubuntu Mono';fill:#3c3c3c;fill-opacity:1"
         id="path884" />
      <path
         d="m 492.69352,1085.9817 q 0,-10.08 3.2,-17.44 3.2,-7.36 8.8,-12.16 5.6,-4.8 12.96,-7.04 7.52,-2.4 16,-2.4 5.44,0 10.72,0.8 5.44,0.64 11.52,2.56 l -3.04,11.36 q -5.28,-1.92 -9.76,-2.4 -4.32,-0.64 -8.8,-0.64 -5.76,0 -10.88,1.6 -5.12,1.44 -8.96,4.8 -3.68,3.2 -5.92,8.48 -2.24,5.12 -2.24,12.48 0,7.04 2.08,12.16 2.08,4.96 5.76,8.32 3.84,3.2 9.12,4.8 5.28,1.6 11.68,1.6 5.12,0 9.76,-0.48 4.8,-0.64 10.4,-2.56 l 1.92,11.04 q -5.6,2.08 -11.36,2.88 -5.76,0.96 -12.48,0.96 -8.96,0 -16.48,-2.4 -7.36,-2.56 -12.8,-7.36 -5.28,-4.8 -8.32,-12 -2.88,-7.36 -2.88,-16.96 z"
         style="font-style:normal;font-variant:normal;font-weight:normal;font-stretch:normal;font-size:160px;font-family:'Ubuntu Mono';-inkscape-font-specification:'Ubuntu Mono';fill:#3c3c3c;fill-opacity:1"
         id="path886" />
      <path
         d="m 682.29352,1113.6617 q 10.08,0 15.36,-3.84 5.28,-3.84 5.28,-11.52 0,-4.64 -1.92,-7.84 -1.92,-3.36 -5.12,-5.76 -3.2,-2.56 -7.2,-4.32 -4,-1.92 -8.16,-3.52 -4.8,-1.92 -9.28,-4.32 -4.32,-2.4 -7.84,-5.6 -3.36,-3.2 -5.44,-7.52 -1.92,-4.32 -1.92,-10.24 0,-12.96 8.16,-20.16 8.16,-7.36 22.72,-7.36 4,0 7.84,0.64 4,0.48 7.36,1.28 3.36,0.8 5.92,1.92 2.72,1.12 4.32,2.24 l -4.16,11.04 q -3.2,-1.92 -8.8,-3.84 -5.6,-1.92 -12.48,-1.92 -7.2,0 -12.48,3.68 -5.28,3.52 -5.28,10.72 0,4.16 1.44,7.04 1.6,2.88 4.16,5.12 2.72,2.08 6.24,3.84 3.52,1.76 7.68,3.52 6.08,2.56 11.04,5.12 5.12,2.56 8.64,6.08 3.68,3.52 5.6,8.32 2.08,4.8 2.08,11.68 0,12.96 -8.8,20 -8.64,6.88 -24.96,6.88 -5.28,0 -9.92,-0.8 -4.64,-0.64 -8.32,-1.76 -3.52,-1.12 -6.24,-2.24 -2.72,-1.12 -4.16,-2.08 l 4,-10.88 q 3.2,1.76 9.44,4.16 6.24,2.24 15.2,2.24 z"
         style="font-style:normal;font-variant:normal;font-weight:normal;font-stretch:normal;font-size:160px;font-family:'Ubuntu Mono';-inkscape-font-specification:'Ubuntu Mono';fill:#3c3c3c;fill-opacity:1"
         id="path888" />
      <path
         d="m 798.45352,1085.8217 q 0,8.8 -2.56,16 -2.4,7.04 -6.88,12.16 -4.48,5.12 -10.72,8 -6.24,2.72 -13.6,2.72 -7.2,0 -13.44,-2.72 -6.08,-2.88 -10.56,-8 -4.48,-5.12 -7.04,-12.16 -2.4,-7.2 -2.4,-16 0,-8.8 2.4,-16 2.56,-7.2 7.04,-12.16 4.48,-5.12 10.56,-7.84 6.24,-2.88 13.44,-2.88 7.36,0 13.6,2.88 6.24,2.72 10.72,7.84 4.48,4.96 6.88,12.16 2.56,7.2 2.56,16 z m -13.6,0 q 0,-12.64 -5.44,-19.84 -5.44,-7.36 -14.72,-7.36 -9.12,0 -14.56,7.36 -5.28,7.2 -5.28,19.84 0,12.48 5.28,19.84 5.44,7.2 14.56,7.2 9.28,0 14.72,-7.2 5.44,-7.36 5.44,-19.84 z"
         style="font-style:normal;font-variant:normal;font-weight:normal;font-stretch:normal;font-size:160px;font-family:'Ubuntu Mono';-inkscape-font-specification:'Ubuntu Mono';fill:#3c3c3c;fill-opacity:1"
         id="path890" />
      <path
         d="m 821.97352,1122.9417 v -70.24 q 16.32,-5.6 32.96,-5.6 5.12,0 9.76,0.48 4.64,0.32 10.24,1.6 l -2.4,11.68 q -5.12,-1.44 -9.12,-1.76 -3.84,-0.48 -8.48,-0.48 -9.76,0 -19.84,2.72 v 61.6 z"
         style="font-style:normal;font-variant:normal;font-weight:normal;font-stretch:normal;font-size:160px;font-family:'Ubuntu Mono';-inkscape-font-specification:'Ubuntu Mono';fill:#3c3c3c;fill-opacity:1"
         id="path892" />
      <path
         d="m 909.49352,1051.4217 q 2.4,-1.44 6.88,-2.88 4.64,-1.6 10.24,-1.6 7.52,0 13.44,2.88 5.92,2.88 9.92,8 4.16,5.12 6.24,12.32 2.24,7.04 2.24,15.68 0,8.96 -2.56,16.16 -2.56,7.2 -7.2,12.32 -4.64,4.96 -11.2,7.68 -6.56,2.72 -14.56,2.72 -8.8,0 -15.68,-1.28 -6.88,-1.28 -11.04,-2.56 v -106.56 l 13.28,-2.24 z m 0,60 q 3.04,0.8 6.08,1.28 3.04,0.32 5.76,0.32 11.04,0 17.28,-6.72 6.24,-6.88 6.24,-20.48 0,-5.76 -1.12,-10.72 -1.12,-5.12 -3.52,-8.64 -2.4,-3.68 -6.24,-5.76 -3.68,-2.08 -8.96,-2.08 -4.64,0 -8.96,1.92 -4.32,1.76 -6.56,3.84 z"
         style="font-style:normal;font-variant:normal;font-weight:normal;font-stretch:normal;font-size:160px;font-family:'Ubuntu Mono';-inkscape-font-specification:'Ubuntu Mono';fill:#3c3c3c;fill-opacity:1"
         id="path894" />
      <path
         d="m 1006.2935,1046.9417 q 15.04,0 23.2,9.44 8.16,9.28 8.16,28.32 v 4.64 h -53.11998 q 0.8,11.52 7.52,17.6 6.88,5.92 19.19998,5.92 7.04,0 12,-1.12 4.96,-1.12 7.52,-2.4 l 1.76,11.2 q -2.4,1.28 -8.64,2.72 -6.24,1.44 -14.08,1.44 -9.6,0 -16.95998,-2.88 -7.2,-3.04 -12,-8.16 -4.8,-5.12 -7.2,-12.16 -2.4,-7.2 -2.4,-15.52 0,-9.92 3.04,-17.28 3.04,-7.36 8,-12.16 4.96,-4.8 11.2,-7.2 6.24,-2.4 12.79998,-2.4 z m 17.92,31.68 q 0,-9.44 -4.96,-14.88 -4.96,-5.6 -13.12,-5.6 -4.64,0 -8.47998,1.76 -3.68,1.76 -6.4,4.64 -2.72,2.88 -4.32,6.56 -1.6,3.68 -2.08,7.52 z"
         style="font-style:normal;font-variant:normal;font-weight:normal;font-stretch:normal;font-size:160px;font-family:'Ubuntu Mono';-inkscape-font-specification:'Ubuntu Mono';fill:#3c3c3c;fill-opacity:1"
         id="path896" />
      <path
         d="m 1083.7335,1048.7017 h 31.36 v 11.04 h -31.36 v 34.56 q 0,5.6 0.8,9.12 0.8,3.52 2.56,5.76 1.92,2.08 4.8,2.88 2.88,0.8 7.04,0.8 5.76,0 9.28,-0.96 3.52,-0.96 6.72,-2.56 l 1.92,11.2 q -2.24,0.96 -7.2,2.56 -4.8,1.6 -12,1.6 -8.32,0 -13.6,-1.92 -5.28,-1.92 -8.32,-5.76 -2.88,-3.84 -4,-9.44 -1.12,-5.76 -1.12,-13.28 v -34.56 h -15.68 v -11.04 h 15.68 v -20.8 l 13.12,-2.24 z"
         style="font-style:normal;font-variant:normal;font-weight:normal;font-stretch:normal;font-size:160px;font-family:'Ubuntu Mono';-inkscape-font-specification:'Ubuntu Mono';fill:#3c3c3c;fill-opacity:1"
         id="path898" />
    </g>
    <g
       aria-label="Robotics Team"
       style="font-style:normal;font-variant:normal;font-weight:normal;font-stretch:normal;font-size:6.35000038px;line-height:1;font-family:'Big Shoulders Display';-inkscape-font-specification:'Big Shoulders Display';letter-spacing:0px;word-spacing:0px;fill:#3c3c3c;fill-opacity:1;stroke:none;stroke-width:0.26458335"
       id="text910">
      <path
         d="m 87.964373,281.59375 v -11.28889 h 1.707444 q 0.959556,0 1.397001,0.42333 0.437444,0.42334 0.465666,1.397 0.04233,0.94545 0.04233,1.74978 0,0.80434 -0.04233,1.58045 -0.04233,1.34055 -0.917222,1.66511 l 1.143,4.47322 h -1.001889 l -1.030111,-4.30389 h -0.832556 v 4.30389 z m 0.931333,-5.15056 h 0.776111 q 0.479778,0 0.691445,-0.22577 0.225778,-0.22578 0.239889,-0.71967 0.07055,-1.70744 0,-3.41489 -0.01411,-0.47978 -0.239889,-0.70555 -0.211667,-0.22578 -0.691445,-0.22578 h -0.776111 z"
         style="font-size:14.11111164px;letter-spacing:6.8791666px;fill:#3c3c3c;fill-opacity:1;stroke-width:0.26458335"
         id="path850" />
      <path
         d="m 101.54345,281.69253 q -0.98778,0 -1.397,-0.42334 -0.395109,-0.42333 -0.437443,-1.41111 -0.02822,-0.762 -0.04233,-1.62277 0,-0.86078 0,-1.72156 0.01411,-0.87489 0.04233,-1.651 0.04233,-0.98778 0.437443,-1.41111 0.40922,-0.42333 1.397,-0.42333 0.98778,0 1.38289,0.43744 0.39511,0.42333 0.43745,1.397 0.0423,1.143 0.0423,2.49767 0,1.34055 -0.0423,2.49766 -0.0423,0.97367 -0.43745,1.41111 -0.39511,0.42334 -1.38289,0.42334 z m 0,-0.74789 q 0.46567,0 0.66322,-0.19756 0.21167,-0.19755 0.22578,-0.69144 0.0282,-1.00189 0.0282,-1.84856 0.0141,-0.84666 0,-1.69333 0,-0.84667 -0.0282,-1.83444 -0.0141,-0.508 -0.21166,-0.70556 -0.19756,-0.19756 -0.67734,-0.19756 -0.47978,0 -0.69144,0.19756 -0.19756,0.19756 -0.21167,0.70556 -0.0282,0.98777 -0.0423,1.83444 -0.0141,0.84667 0,1.69333 0.0141,0.84667 0.0423,1.84856 0.0141,0.49389 0.21167,0.69144 0.21166,0.19756 0.69144,0.19756 z"
         style="font-size:14.11111164px;letter-spacing:6.8791666px;fill:#3c3c3c;fill-opacity:1;stroke-width:0.26458335"
         id="path853" />
      <path
         d="m 115.38336,274.70753 q 0.0141,1.34055 0.0141,2.72344 0,1.36878 -0.0141,2.58234 -0.0423,0.90311 -0.381,1.29822 -0.33866,0.381 -1.00188,0.381 -0.49389,0 -0.762,-0.21167 -0.26812,-0.21167 -0.47978,-0.635 h -0.15522 v 0.74789 h -0.93134 v -11.28889 h 0.93134 v 3.57011 h 0.21166 q 0.19756,-0.42333 0.46567,-0.635 0.28222,-0.21166 0.762,-0.21166 0.66322,0 0.97367,0.39511 0.32455,0.381 0.36688,1.28411 z m -0.94544,5.37633 q 0.0847,-2.52589 0,-5.44689 -0.0141,-0.46566 -0.18344,-0.66322 -0.15523,-0.21167 -0.53623,-0.21167 -0.84666,0 -1.11477,0.86078 v 5.47511 q 0.26811,0.86078 1.11477,0.86078 0.381,0 0.53623,-0.19756 0.16933,-0.21166 0.18344,-0.67733 z"
         style="font-size:14.11111164px;letter-spacing:6.8791666px;fill:#3c3c3c;fill-opacity:1;stroke-width:0.26458335"
         id="path855" />
      <path
         d="m 125.38903,281.69253 q -0.98778,0 -1.397,-0.42334 -0.39512,-0.42333 -0.43745,-1.41111 -0.0282,-0.762 -0.0423,-1.62277 0,-0.86078 0,-1.72156 0.0141,-0.87489 0.0423,-1.651 0.0423,-0.98778 0.43745,-1.41111 0.40922,-0.42333 1.397,-0.42333 0.98777,0 1.38288,0.43744 0.39512,0.42333 0.43745,1.397 0.0423,1.143 0.0423,2.49767 0,1.34055 -0.0423,2.49766 -0.0423,0.97367 -0.43745,1.41111 -0.39511,0.42334 -1.38288,0.42334 z m 0,-0.74789 q 0.46566,0 0.66322,-0.19756 0.21166,-0.19755 0.22578,-0.69144 0.0282,-1.00189 0.0282,-1.84856 0.0141,-0.84666 0,-1.69333 0,-0.84667 -0.0282,-1.83444 -0.0141,-0.508 -0.21167,-0.70556 -0.19756,-0.19756 -0.67733,-0.19756 -0.47978,0 -0.69145,0.19756 -0.19755,0.19756 -0.21167,0.70556 -0.0282,0.98777 -0.0423,1.83444 -0.0141,0.84667 0,1.69333 0.0141,0.84667 0.0423,1.84856 0.0141,0.49389 0.21167,0.69144 0.21167,0.19756 0.69145,0.19756 z"
         style="font-size:14.11111164px;letter-spacing:6.8791666px;fill:#3c3c3c;fill-opacity:1;stroke-width:0.26458335"
         id="path857" />
      <path
         d="m 137.54023,281.69253 q -0.98777,0 -1.35466,-0.39511 -0.36689,-0.40923 -0.381,-1.32645 v -6.096 h -0.57856 v -0.74789 h 0.59267 v -2.39889 h 0.95955 l -0.0141,2.39889 h 1.25589 v 0.74789 h -1.27 v 6.18067 q 0,0.52211 0.14111,0.70555 0.14111,0.18345 0.66323,0.18345 0.19755,0 0.32455,0 0.127,-0.0141 0.28222,-0.0423 v 0.71966 q -0.26811,0.0706 -0.62089,0.0706 z"
         style="font-size:14.11111164px;letter-spacing:6.8791666px;fill:#3c3c3c;fill-opacity:1;stroke-width:0.26458335"
         id="path859" />
      <path
         d="m 145.93414,271.43375 v -1.12889 h 1.48167 v 1.12889 z m 0.29634,10.16 v -8.46667 h 0.93133 v 8.46667 z"
         style="font-size:14.11111164px;letter-spacing:6.8791666px;fill:#3c3c3c;fill-opacity:1;stroke-width:0.26458335"
         id="path861" />
      <path
         d="m 155.64325,279.97097 q -0.0282,-0.762 -0.0423,-1.67922 0,-0.91722 0,-1.83444 0.0141,-0.91723 0.0423,-1.69334 0.0423,-0.93133 0.45155,-1.32644 0.42333,-0.40922 1.35467,-0.40922 0.93133,0 1.34055,0.39511 0.42334,0.39511 0.43745,1.31233 0.0141,0.26811 0,0.62089 0,0.33867 -0.0141,0.66322 h -0.91723 q 0.0282,-0.35278 0.0141,-0.73378 0,-0.381 0,-0.635 -0.0141,-0.508 -0.21167,-0.69144 -0.19756,-0.18345 -0.64911,-0.18345 -0.46567,0 -0.66322,0.18345 -0.19756,0.18344 -0.21167,0.69144 -0.0141,1.00189 -0.0282,1.86267 0,0.84667 0,1.69333 0.0141,0.84667 0.0282,1.84856 0.0141,0.508 0.21167,0.70555 0.21166,0.18345 0.66322,0.18345 0.45155,0 0.64911,-0.18345 0.19755,-0.19755 0.21167,-0.70555 0,-0.26811 0,-0.60678 0.0141,-0.33867 -0.0141,-0.762 h 0.91723 q 0.0423,0.67733 0.0141,1.28411 -0.0282,0.91722 -0.43745,1.32645 -0.40922,0.39511 -1.34055,0.39511 -0.94545,0 -1.36878,-0.39511 -0.40922,-0.40923 -0.43744,-1.32645 z"
         style="font-size:14.11111164px;letter-spacing:6.8791666px;fill:#3c3c3c;fill-opacity:1;stroke-width:0.26458335"
         id="path863" />
      <path
         d="m 168.99522,281.69253 q -0.91722,0 -1.28411,-0.39511 -0.36689,-0.40923 -0.39511,-1.32645 -0.0282,-0.60678 0.0141,-1.28411 h 0.83256 q -0.0141,0.42333 -0.0141,0.762 0,0.33867 0,0.60678 0.0141,0.508 0.19755,0.70555 0.19756,0.18345 0.64911,0.18345 0.47978,0 0.67734,-0.18345 0.19755,-0.19755 0.21166,-0.70555 0.0141,-0.254 0.0141,-0.52211 0,-0.26811 0,-0.49389 -0.0141,-0.52211 -0.127,-0.79022 -0.11289,-0.28223 -0.47978,-0.40923 l -0.66322,-0.22577 q -0.73378,-0.23989 -1.03012,-0.67734 -0.28222,-0.43744 -0.29633,-1.36877 -0.0141,-0.21167 -0.0141,-0.39512 0.0141,-0.19755 0.0141,-0.40922 0.0141,-0.93133 0.39511,-1.32644 0.381,-0.40922 1.35467,-0.40922 0.91722,0 1.28411,0.39511 0.36689,0.39511 0.39511,1.31233 0,0.26811 0,0.62089 0,0.33867 -0.0141,0.66322 h -0.87489 q 0.0282,-0.35278 0.0141,-0.73378 0,-0.381 0,-0.635 -0.0141,-0.508 -0.18344,-0.69144 -0.16934,-0.18345 -0.62089,-0.18345 -0.46567,0 -0.64911,0.18345 -0.16934,0.18344 -0.18345,0.69144 0,0.23989 -0.0141,0.43745 0,0.19755 0,0.40922 0.0141,0.53622 0.0988,0.86078 0.0988,0.32455 0.52211,0.46566 l 0.62089,0.18345 q 0.67733,0.21167 1.00189,0.66322 0.33867,0.43745 0.33867,1.32645 0,0.23988 -0.0141,0.508 0,0.254 -0.0141,0.49388 -0.0282,0.90312 -0.42333,1.29823 -0.381,0.39511 -1.34056,0.39511 z"
         style="font-size:14.11111164px;letter-spacing:6.8791666px;fill:#3c3c3c;fill-opacity:1;stroke-width:0.26458335"
         id="path865" />
      <path
         d="m 189.87856,281.59375 v -10.44222 h -1.43933 v -0.84667 h 3.81 v 0.84667 h -1.42522 v 10.44222 z"
         style="font-size:14.11111164px;letter-spacing:6.8791666px;fill:#3c3c3c;fill-opacity:1;stroke-width:0.26458335"
         id="path867" />
      <path
         d="m 202.28069,278.68686 h 0.90311 q 0.0141,0.32456 0.0141,0.67733 0.0141,0.33867 0,0.62089 -0.0423,0.90311 -0.43744,1.31234 -0.381,0.39511 -1.31234,0.39511 -0.95955,0 -1.38289,-0.39511 -0.42333,-0.40923 -0.45155,-1.31234 -0.0282,-0.762 -0.0423,-1.67922 0,-0.93133 0,-1.84855 0.0141,-0.91723 0.0423,-1.69334 0.0423,-0.93133 0.46567,-1.32644 0.42333,-0.40922 1.35466,-0.40922 0.90311,0 1.31234,0.39511 0.40922,0.39511 0.45155,1.31233 0.0141,0.32456 0.0141,1.10067 0.0141,0.762 -0.0282,1.72155 h -2.65289 q 0,0.59267 0,1.19945 0.0141,0.59266 0.0282,1.29822 0,0.508 0.19756,0.70555 0.21167,0.18345 0.66322,0.18345 0.45156,0 0.635,-0.18345 0.19756,-0.19755 0.22578,-0.70555 0.0141,-0.52211 0,-1.36878 z m -0.84667,-4.91067 q -0.46566,0 -0.67733,0.21167 -0.19756,0.19756 -0.19756,0.66322 -0.0141,0.62089 -0.0282,1.143 0,0.52211 0,1.03011 h 1.76389 q 0,-0.74788 0,-1.31233 0,-0.57855 -0.0141,-0.86078 -0.0282,-0.46566 -0.22578,-0.66322 -0.19755,-0.21167 -0.62089,-0.21167 z"
         style="font-size:14.11111164px;letter-spacing:6.8791666px;fill:#3c3c3c;fill-opacity:1;stroke-width:0.26458335"
         id="path869" />
      <path
         d="m 212.45767,281.67842 q -0.67734,0 -1.00189,-0.39511 -0.32456,-0.39512 -0.381,-1.18534 -0.0141,-0.18344 -0.0282,-0.36689 0,-0.18344 0.0141,-0.36689 0.0423,-0.73377 0.33866,-1.27 0.31045,-0.53622 1.08656,-0.98777 0.29633,-0.16934 0.62089,-0.32456 0.32455,-0.16933 0.64911,-0.32455 v -1.778 q 0,-0.46567 -0.18344,-0.67734 -0.16934,-0.22578 -0.635,-0.22578 -0.39512,0 -0.59267,0.18345 -0.19756,0.18344 -0.21167,0.69144 -0.0141,0.23989 -0.0141,0.64911 0,0.40923 0.0141,0.71967 h -0.91722 q -0.0141,-0.26811 -0.0282,-0.635 0,-0.36689 0.0141,-0.64911 0.0423,-0.90311 0.43744,-1.29822 0.40923,-0.40922 1.34056,-0.40922 0.97367,0 1.32644,0.43744 0.36689,0.42333 0.39511,1.38289 l -0.0141,6.74511 h -0.93133 v -0.762 h -0.15522 q -0.15522,0.40922 -0.42334,0.635 -0.254,0.21167 -0.71966,0.21167 z m 0.32455,-0.71967 q 0.69145,0 0.97367,-0.80433 v -2.921 q -0.23989,0.11289 -0.49389,0.254 -0.254,0.127 -0.57855,0.36689 -0.40923,0.29633 -0.55034,0.66322 -0.127,0.36689 -0.14111,0.84666 -0.0141,0.14112 -0.0141,0.32456 0.0141,0.16933 0.0141,0.35278 0.0423,0.43744 0.23989,0.67733 0.21167,0.23989 0.55033,0.23989 z"
         style="font-size:14.11111164px;letter-spacing:6.8791666px;fill:#3c3c3c;fill-opacity:1;stroke-width:0.26458335"
         id="path871" />
      <path
         d="m 223.07276,281.59375 v -8.46667 h 0.93133 v 0.74789 h 0.18344 q 0.21167,-0.42333 0.47978,-0.635 0.28222,-0.21166 0.77611,-0.21166 0.508,0 0.80434,0.21166 0.31044,0.21167 0.43744,0.69145 h 0.18345 q 0.21166,-0.43745 0.52211,-0.66323 0.31044,-0.23988 0.80433,-0.23988 0.66322,0 0.98778,0.39511 0.32455,0.381 0.33866,1.28411 l 0.0141,6.88622 h -0.93134 l -0.0141,-6.95678 q -0.0141,-0.46566 -0.18344,-0.66322 -0.15523,-0.21167 -0.53623,-0.21167 -0.79022,0 -1.08655,0.87489 v 6.95678 h -0.93133 l -0.0141,-6.95678 q 0,-0.46566 -0.16933,-0.66322 -0.16933,-0.21167 -0.55033,-0.21167 -0.84667,0 -1.11478,0.86078 v 6.97089 z"
         style="font-size:14.11111164px;letter-spacing:6.8791666px;fill:#3c3c3c;fill-opacity:1;stroke-width:0.26458335"
         id="path873" />
    </g>
  </g>
</svg>
